<?xml version="1.0" encoding="UTF-8"?>
<svg width="400" height="400" xmlns="http://www.w3.org/2000/svg" xmlns:svg="http://www.w3.org/2000/svg" xmlns:xlink="http://www.w3.org/1999/xlink">
 <defs>
  <linearGradient xlink:href="#linearGradient4156-18" id="linearGradient11740" x1="-0.087719" y1="-0.052632" x2="0.610526" y2="0.705263"/>
  <linearGradient id="linearGradient4156-18">
   <stop id="stop4158-5" offset="0" stop-color="#ffffff"/>
   <stop id="stop4160-5" offset="1" stop-opacity="0" stop-color="#ffffff"/>
  </linearGradient>
  <filter id="filter6126-4" color-interpolation-filters="sRGB">
   <feGaussianBlur id="feGaussianBlur6128-4" stdDeviation="0.530357"/>
  </filter>
 </defs>
 <metadata id="metadata11777">image/svg+xml</metadata>
 <g>
  <title>Layer 1</title>
  <path id="path7234" d="m352.4133,210.7191c0,82.84276 -67.1572,149.99999 -149.99997,149.99999c-82.84276,0 -150.00006,-67.15723 -150.00006,-149.99999c0,-82.84277 67.15729,-149.99997 150.00006,-149.99997c82.84277,0 149.99997,67.1572 149.99997,149.99997z" fill="#999999"/>
  <path id="path7236" d="m350.2645,210.7191c0,81.65599 -66.19516,147.85127 -147.85117,147.85127c-81.65599,0 -147.85117,-66.19528 -147.85117,-147.85127c0,-81.65599 66.19518,-147.85108 147.85117,-147.85108c81.65601,0 147.85117,66.19509 147.85117,147.85108z" fill="url(#linearGradient11740)"/>
  <path d="m337.00632,210.71893c0,74.33371 -60.25934,134.59317 -134.59308,134.59317c-74.3338,0 -134.59316,-60.25946 -134.59316,-134.59317c0,-74.33372 60.25936,-134.59317 134.59316,-134.59317c74.33374,0 134.59308,60.25945 134.59308,134.59317z" id="path7238" filter="url(#filter6126-4)" fill="#ececec"/>
  <path id="path7240" d="m331.58844,210.7191c0,71.34151 -57.83368,129.1751 -129.1752,129.1751c-71.34151,0 -129.17518,-57.83359 -129.17518,-129.1751c0,-71.34151 57.83367,-129.17527 129.17518,-129.17527c71.34152,0 129.1752,57.83376 129.1752,129.17527z" filter="url(#filter6126-4)" fill="#999999"/>
  <path id="path7242" d="m327.57901,211.71899c0,68.57502 -55.591,124.16602 -124.16602,124.16602c-68.57399,0 -124.16509,-55.591 -124.16509,-124.16602c0,-68.57499 55.5911,-124.16529 124.16509,-124.16529c68.57502,0 124.16602,55.5903 124.16602,124.16529z" fill="#7fff00"/>
  <path id="path7246" d="m199.49631,93.99213c-38.72734,0.87363 -76.07435,21.37616 -96.84533,57.35252c-22.34129,38.69621 -19.50495,85.02216 3.35393,120.07152c2.47826,-77.07823 61.39081,-135.13327 134.5773,-130.88797c23.99335,1.39175 46.64014,9.29667 66.40824,22.05226c-9.46427,-21.64267 -25.6149,-40.53587 -47.62604,-53.24411c-18.84488,-10.87994 -39.58235,-15.80187 -59.8681,-15.34422z" fill="#ffffff" opacity="0.617708"/>
  <text style="cursor: move;" font-weight="bold" fill="#000000" stroke-width="0" stroke-dasharray="null" stroke-linejoin="null" stroke-linecap="null" opacity="0.617708" x="203" y="230.5" id="svg_84" font-size="56" font-family="Fantasy" text-anchor="middle" xml:space="preserve">SHOOT</text>
 </g>
</svg>