<?xml version="1.0" standalone="no"?>
<!DOCTYPE svg PUBLIC "-//W3C//DTD SVG 20010904//EN"
 "http://www.w3.org/TR/2001/REC-SVG-20010904/DTD/svg10.dtd">
<svg version="1.0" xmlns="http://www.w3.org/2000/svg"
 width="238.000000pt" height="238.000000pt" viewBox="0 0 238.000000 238.000000"
 preserveAspectRatio="xMidYMid meet">
<metadata>
Created by potrace 1.11, written by Peter Selinger 2001-2013
</metadata>
<g transform="translate(0.000000,238.000000) scale(0.100000,-0.100000)"
fill="#000000" stroke="none">
<path d="M1487 2330 c-8 -11 -17 -17 -21 -12 -4 4 -6 3 -5 -3 4 -15 -11 -55
-21 -55 -5 0 -12 5 -15 10 -11 18 -25 10 -39 -23 -7 -19 -41 -63 -74 -99 -34
-35 -66 -77 -71 -91 -6 -15 -17 -27 -26 -27 -8 0 -15 -9 -15 -19 0 -11 -4 -22
-9 -26 -11 -6 -63 39 -56 49 3 3 0 2 -7 -4 -8 -7 -19 -3 -35 12 -13 12 -23 18
-23 14 0 -5 -7 -3 -15 4 -13 11 -13 14 2 26 16 13 15 14 -11 8 -18 -4 -27 -3
-23 3 3 5 -8 20 -25 34 -16 13 -36 30 -43 37 -8 6 -19 12 -25 12 -6 0 -9 4 -6
8 8 13 -83 14 -137 1 -27 -6 -60 -22 -74 -35 -14 -13 -32 -20 -41 -17 -13 4
-14 3 -3 -5 11 -8 9 -13 -10 -26 -21 -13 -25 -24 -27 -79 -2 -48 1 -67 12 -77
18 -15 21 -46 5 -56 -7 -4 -9 0 -5 14 4 11 3 23 -2 26 -4 2 -8 -15 -8 -39 -1
-29 4 -46 14 -50 8 -3 12 -12 9 -20 -4 -9 -1 -12 9 -8 20 7 18 -7 -3 -24 -17
-13 -16 -13 3 -4 18 8 24 5 43 -20 29 -39 22 -47 -12 -15 -31 28 -54 18 -62
-26 -3 -15 -9 -38 -14 -50 -5 -13 -9 -27 -10 -33 -3 -12 -31 -8 -48 7 -7 5
-17 7 -23 3 -8 -5 -3 -16 13 -34 14 -14 33 -42 42 -61 10 -19 23 -42 29 -50
15 -18 19 -60 6 -60 -5 0 -12 5 -15 10 -3 6 -13 10 -21 10 -8 0 -12 -4 -9 -10
3 -5 2 -10 -4 -10 -16 0 -53 59 -45 71 4 7 3 9 -3 6 -6 -4 -14 0 -17 9 -3 8
-10 12 -16 9 -5 -3 -10 3 -10 15 0 37 -28 79 -48 73 -19 -5 -27 -33 -8 -30 11
2 13 -5 15 -58 1 -22 9 -42 21 -52 13 -11 20 -30 20 -51 0 -28 -3 -32 -22 -30
-40 5 -34 -16 13 -48 25 -16 44 -35 41 -42 -2 -7 1 -13 7 -13 6 -1 16 -2 23
-3 11 -1 25 -26 14 -26 -15 0 -56 25 -56 34 0 6 -4 6 -11 -1 -13 -13 1 -42 42
-86 32 -33 37 -50 14 -41 -9 4 -15 1 -15 -7 0 -7 -12 6 -27 29 -27 41 -38 48
-92 54 -36 4 -36 -15 0 -31 31 -14 72 -68 63 -83 -3 -4 0 -8 6 -8 6 0 8 -5 5
-10 -4 -6 -3 -10 2 -9 4 1 20 -1 36 -6 23 -6 25 -10 16 -22 -9 -10 -24 -13
-53 -9 -80 11 -106 18 -106 28 0 6 -6 8 -14 5 -7 -3 -18 -1 -23 4 -5 5 -31 11
-58 14 -27 3 -52 10 -56 17 -4 7 -11 9 -14 6 -4 -4 -19 -2 -34 4 -39 15 -71
19 -71 10 0 -12 39 -47 53 -47 20 -2 47 -17 47 -26 0 -16 38 -51 48 -45 12 7
42 -3 42 -15 0 -4 -8 -5 -17 -2 -15 6 -16 5 -3 -9 8 -8 24 -15 35 -14 11 1 31
-9 45 -21 14 -13 29 -23 35 -23 5 0 3 -5 -5 -11 -11 -8 -12 -12 -2 -16 6 -2
10 -8 8 -12 -3 -4 4 -7 14 -7 10 0 16 4 14 8 -3 4 -1 8 5 8 16 0 57 -63 43
-68 -7 -2 -12 -9 -12 -15 0 -8 3 -8 11 0 14 14 42 5 32 -10 -3 -5 -1 -7 5 -3
15 9 42 -21 36 -39 -4 -8 1 -18 10 -21 9 -3 13 -10 10 -15 -3 -5 -10 -7 -15
-4 -5 4 -9 1 -9 -5 0 -7 7 -10 15 -6 8 3 15 1 15 -4 0 -6 6 -9 13 -8 6 2 11
-5 11 -14 -1 -10 2 -15 7 -12 13 8 11 -10 -3 -25 -9 -10 -10 -12 -1 -7 13 7
36 -27 25 -38 -3 -4 1 -4 11 0 10 3 17 1 17 -6 0 -6 8 -10 18 -8 17 3 22 -2
22 -23 0 -6 -9 -8 -20 -4 -18 6 -20 2 -18 -28 2 -19 6 -33 11 -30 4 2 7 0 7
-6 0 -5 -5 -12 -10 -14 -6 -3 -5 -4 2 -3 7 2 27 -3 43 -10 17 -6 56 -12 88
-13 48 0 62 -4 77 -23 11 -13 19 -29 20 -36 0 -7 5 -10 10 -7 13 8 13 -8 0
-21 -8 -8 -5 -17 7 -30 10 -11 14 -15 10 -8 -5 7 -2 16 5 20 22 14 38 13 38
-2 0 -8 7 -14 16 -14 10 0 14 -7 12 -17 -2 -10 -11 -16 -19 -15 -8 2 -11 1 -7
-3 4 -4 3 -18 -2 -31 -6 -15 -5 -26 2 -30 7 -5 8 -2 3 6 -6 10 -4 12 8 7 11
-4 14 -2 10 9 -3 7 -1 14 5 14 6 0 24 11 41 26 16 14 33 25 37 25 7 0 34 -54
39 -77 8 -33 17 -54 26 -54 5 0 9 -17 9 -39 0 -38 38 -146 48 -136 3 2 6 33 8
67 2 35 8 64 13 66 5 2 7 10 4 18 -3 8 -1 14 4 14 5 0 9 8 10 18 5 43 29 143
34 137 3 -3 12 1 19 10 8 10 9 15 1 15 -6 0 -11 7 -11 15 0 8 5 15 11 15 5 0
7 -4 4 -10 -3 -5 0 -7 8 -4 8 3 18 1 22 -5 11 -18 23 -12 27 11 3 25 8 25 91
15 38 -5 47 -4 47 8 0 8 5 15 10 15 6 0 10 7 10 15 0 21 30 19 46 -2 10 -14
15 -15 25 -6 6 6 17 9 24 7 7 -3 15 4 18 15 7 28 32 18 47 -20 20 -47 30 -44
24 8 -6 45 -5 47 9 28 9 -11 17 -15 17 -7 0 6 5 12 11 12 6 0 9 -7 5 -15 -3
-8 -2 -14 2 -13 4 1 17 -3 29 -10 13 -7 42 -15 65 -18 38 -6 41 -5 29 10 -7 9
-19 16 -27 16 -9 0 -11 12 -8 44 4 44 -18 125 -37 136 -6 4 -4 12 6 20 13 10
15 9 15 -7 0 -20 18 -43 33 -43 4 0 7 10 5 23 -2 14 2 21 10 19 8 -1 11 2 8 7
-4 5 -2 12 4 16 12 8 62 -29 52 -39 -3 -4 1 -4 11 0 11 4 17 1 17 -9 0 -9 10
-17 23 -19 15 -2 21 -9 19 -22 -3 -13 1 -17 12 -13 8 3 26 -3 39 -14 32 -24
34 -24 51 9 8 15 15 21 16 15 0 -7 4 -13 9 -13 4 0 7 13 5 30 -2 16 2 35 9 42
6 8 13 20 15 28 5 22 43 103 57 120 11 13 40 152 49 230 2 14 6 40 10 58 8 36
9 36 -67 33 -46 -2 -48 -1 -38 18 14 25 14 41 1 21 -7 -12 -10 -8 -10 14 l0
29 23 -21 c24 -23 61 -29 72 -12 3 6 1 10 -5 10 -6 0 -8 5 -4 11 4 7 1 10 -7
7 -21 -8 -68 29 -63 50 7 29 -44 72 -86 72 -23 0 -26 10 -8 28 9 9 7 13 -5 18
-9 3 -24 4 -32 1 -8 -4 -17 -3 -19 2 -8 12 23 51 40 51 8 0 14 10 14 24 0 16
7 27 20 31 11 3 20 13 20 21 0 18 -5 18 -36 -2 -13 -9 -27 -14 -31 -11 -3 3
-12 0 -20 -8 -19 -19 -102 -19 -127 0 -11 8 -14 15 -8 15 7 0 12 5 12 11 0 5
-5 7 -12 3 -8 -5 -9 -2 -5 9 3 9 1 19 -5 23 -7 4 -8 3 -4 -4 4 -7 4 -12 -1
-12 -11 1 -44 48 -47 66 -1 8 -8 20 -16 27 -12 10 -12 9 -1 -5 8 -11 9 -18 3
-18 -6 0 -15 6 -19 13 -4 6 -14 12 -22 12 -28 0 -22 24 6 27 l28 3 -43 31
c-46 35 -41 44 24 44 24 0 34 4 34 16 0 13 -9 15 -50 12 -52 -3 -69 9 -47 32
8 9 8 11 1 7 -7 -4 -17 6 -25 24 -10 25 -10 35 0 51 7 12 8 17 2 13 -15 -9
-14 8 1 23 9 9 7 12 -10 12 -23 0 -25 -7 -24 -80 0 -19 -2 -29 -5 -22 -2 6 -9
10 -14 6 -8 -5 -13 10 -10 29 1 5 -4 5 -10 1 -14 -8 -29 14 -29 43 0 16 4 21
15 17 10 -4 15 0 15 11 0 9 7 29 16 45 10 15 14 35 11 44 -7 19 -37 22 -37 3
0 -7 -10 -17 -22 -22 -12 -6 -26 -26 -32 -45 -13 -41 -46 -52 -46 -14 0 12 -7
27 -15 32 -10 5 -17 31 -22 75 -6 64 -14 82 -27 55 -3 -7 -4 12 -2 42 4 53 30
127 51 142 6 4 6 8 1 8 -5 0 -2 8 7 18 16 17 14 32 -4 32 -4 0 -14 -9 -22 -20z
m316 -1768 c3 7 6 -3 6 -22 l1 -35 -20 25 c-23 29 -26 48 -6 31 11 -9 15 -9
19 1z"/>
<path d="M1005 2140 c3 -5 10 -10 16 -10 5 0 9 5 9 10 0 6 -7 10 -16 10 -8 0
-12 -4 -9 -10z"/>
<path d="M1206 2098 c-10 -38 -7 -58 9 -58 11 0 15 11 15 40 0 43 -14 54 -24
18z"/>
<path d="M635 1829 c-4 -6 -5 -12 -2 -15 2 -3 7 2 10 11 7 17 1 20 -8 4z"/>
<path d="M2006 1578 c-4 -24 -17 -53 -28 -65 l-21 -23 21 0 c12 0 32 10 45 23
12 12 25 21 29 20 4 -2 0 10 -8 25 -7 15 -14 35 -14 45 0 34 -18 16 -24 -25z"/>
<path d="M280 1150 c0 -5 5 -10 11 -10 5 0 7 5 4 10 -3 6 -8 10 -11 10 -2 0
-4 -4 -4 -10z"/>
<path d="M355 1140 c11 -5 29 -8 40 -8 16 0 15 2 -5 8 -34 11 -60 11 -35 0z"/>
<path d="M1880 691 c0 -6 4 -13 10 -16 6 -3 7 1 4 9 -7 18 -14 21 -14 7z"/>
<path d="M2139 628 c4 -28 6 -29 9 -9 2 13 0 27 -5 32 -6 6 -7 -3 -4 -23z"/>
<path d="M1917 639 c7 -7 15 -10 18 -7 3 3 -2 9 -12 12 -14 6 -15 5 -6 -5z"/>
<path d="M633 610 c1 -21 10 -18 13 5 1 8 -2 15 -6 15 -5 0 -8 -9 -7 -20z"/>
<path d="M636 554 c-4 -9 -4 -19 -1 -22 2 -3 7 3 11 12 4 9 4 19 1 22 -2 3 -7
-3 -11 -12z"/>
<path d="M838 463 c6 -2 18 -2 25 0 6 3 1 5 -13 5 -14 0 -19 -2 -12 -5z"/>
</g>
</svg>
